<svg xmlns="http://www.w3.org/2000/svg" version="1.1" width="317.7" height="87.7" viewBox="0 0 317.7 87.7" preserveAspectRatio="none">
<path fill="#000000" d="M36,5.3c19.4-4.9,31.1-8.9,26.8,3.2-.5.6-1.1.4-.9-.3,1.5-7.2-12.6-5.5-26.4-1.4-4.5,7.5-7.1.7-18.1,16.7,6.9.2,13.9-6.3,15.9-.7.2,1.7-1-.3-3.1-.4-2.9,0-7.8,1.9-14.2,2.9-6.4,8.8-11.2,19.3-13.6,25.7-8.5,2.1,7.3-20,11.4-25.4-3.9.4-5.1-1.7-5.4-2.5-.9-2.8,1.9.5,7,.3,4.2-5.4,8.6-10.6,12.5-14.5-6.3,1.2-17.8,5-26.5,1.7-2.9-2.9-1.2-2.8,3.2-3.2,4.3-.4,3.7.9,6.6,1.6,5.5,1.2,12.2-.3,18.7-2.1.9-1,6.3-6.5,6.1-1.8Z"/>
<path fill="#000000" d="M28.3,39.1c2.1-3.3,13.4-21.7,14-22.7,1.8-2.9.3-5.6,3.3-8.2,1.1-1.5,1.9-.9,2.8.9.3,2.7-2.6,4.8-4.5,8.7-9.3,15.6-31.2,45-2.8,26.4,2-4.2,4.7-2.4.1.8-7.5,6.5-23.3,10.8-12.9-5.8Z"/>
<path fill="#000000" d="M52.3,46c8.8,3.7,11.4-5.7,13-3.7-2,3.8-8.9,6.7-13.7,4.2-14.2,13.1-16.8-5.4-3.3-11.4,10-10.9,13.7,3.6,4,10.9ZM50.8,46.1c-2.4-1.6-3.8-4.5-3.6-7.4-10.3,8.5-5.4,16.4,3.6,7.4ZM54.3,35.7c-1.9,0-3.9.7-6.4,2.5-.3,2.9,1.2,5.8,3.6,7.3,2.5-2.5,3.9-5.4,4.6-8.2,1.1-5-3.4-6.7-6.7-2.6,1.7-.8,7.2,0,5,.9Z"/>
<path fill="#000000" d="M63,49.1c2.9-1.4,7.2-5.5,10-9.8,1.3-2.1,1.8-2.3,3.9-2.8,1.9-.5,1.6.3.7,1.6-12.7,20.3,11,11.7,8.3-2.1-.3-5.9,4.2-3.1,2.2,2.7-1.5,5.8-7.5,13-12.8,12.2-4.5-.6-3.6-6.2-2.9-8.8,0-.3,0-.3-.3,0-2.1,2.8-5.4,6.6-10.8,8.6-1.9.7-2.2-1.6-1.3-2.5,2.1-2.2,5-7.5,2.1-10.8,0,0-.9-3.4.3-3.4,6.1.7,2.4,12.1.3,14.6-.3.4-.2.7.3.5Z"/>
<path fill="#000000" d="M101.3,41.3c-3.3,1.7-7.4,2.1-8.9,1.5-7.2,12.5,13.4,5.9,19.3.7.5-.8,2.4-3.9,3.1-2.3-3.8,5.9-18,11.7-23.9,9-3.7-1.9-3.1-7.7,2.3-12.4,9.4-8.1,19.4-2.9,8.1,3.4ZM104.9,35.7c-.4-2.6-9.5,2.5-12,6.3,2.8,1.3,12.8-2.3,12-6.3Z"/>
<path fill="#000000" d="M110.2,50.4c-.9,1.3-1.9-.7-1.8-1.4.6-2.4,5.1-6.9,4.7-9.9-.2-1.8,3.3-8.3,5-3.8.3.7,0,1.5-.2,1.8l-4.5,7.1c1.2.3,15-17.8,16.2-7.2-1,6.4-4.2,3-2.7-.2.4-7-15.1,10.3-16.9,13.6Z"/>
<path fill="#000000" d="M150.4,29.7c-1.3,1.4-3.3,3.4-5.5,5.3,2.5,3.3,5,6.2,6.4,7-1.6,3-5.6-.6-9-4.8-4.8,4-9.5,6.9-10.4,5,2-1.2,5.4-3.9,9-7-2.4-3.8-7.7-7.9-2.2-10.6.7,1.9,2.7,5,4.8,8.2,3.5-3.3,6.8-6.6,8.3-9,2.4,1.1,1.4,2.8-1.4,5.8Z"/>
<path fill="#000000" d="M201.3,2.4c-11-7-56,29.6-39.6,46.5,10.6,6.6,32.6-2.9,39.7-11.1,1-.9,1.6-1.1,1.7-.5-6.8,9.6-31,20.3-43.2,13-20.1-19.3,27.2-57.6,42.1-49.2,10.1,5.5-3.9,26.6-11.4,21.4-1.7-.9,5-4.8,6.9-4.6s2.7-1.4,2.7-1.4c2.6-2.9,6.6-11.4,1.1-14.2Z"/>
<path fill="#000000" d="M210.1,40.4c3.9-6.5-1.8-4.4-7.3-.2-4,3.1-8.5,8-9.9,10.2-.9,1.3-1.9-.7-1.8-1.4,3.2-8.1,18.8-28.3,20.3-36.2-.2-1.8,3.3-8.3,5-3.8.3.7,0,1.5-.2,1.8-4.9,7.5-19.9,33.2-20.2,33.7,1.7-.7,14-12.5,17.7-10.6,3.5,1,0,5.6-1.7,8.1-2.2,3.1-5.4,6.6-3.5,7.8,2.4,1.6,12.3-3.8,13.8-5.6.7-.7.3-1.1,1.1-1.7,1.1-.9,1.6-1.1,1.7-.4-3.7,7.2-28.1,16.2-15-1.7Z"/>
<path fill="#000000" d="M236.9,43.1c-3.1,1.6-11.4,10.5-15.5,7.4-3.6-2.5,1-9.6,5.7-13,6.3-5.5,19.9-4.8,17.1,1.1-.7.3-1-.4-1.4-1.3-2.5-8.7-23.6,7.1-20.1,12.3,2.2,1.8,9.8-3.7,13.2-7.4,3.9-3.6,3.3-6.5,5.1-5.3,1.6,1.7,1.1,5.5-1,6.4-10.1,12.2,7.6,4.5,11.1.9.7-.7.3-1.1,1.1-1.7,1.1-.9,1.6-1.1,1.7-.4-1.8,5.1-25.8,16.4-17,1Z"/>
<path fill="#000000" d="M251.2,46.2c4.2-4.2,15.6-14.4,19.2-12.1,2.5,1.5,1.6,5.1-.6,8.4,2.3.3,6.6,2.6,6.7,4.3,0,.7-.6.5-1.7-.4-1.2-2.1-3.1-2.8-5.5-3.3-13.6,17.9-28.3.7-2.7-1,10.3-16.2-10.3-.6-14.5,4.4-7.8,8.8-15.6,25.9-21.7,37.2-.9,1.9-1.4,5.2-2.7,3.6-1.3-1.7-1.3-2.2-.6-3.4,7.1-12.2,20.4-34.6,26.8-49.4.8-1,1.3-1.4,2.5,1.1.5,3.3-5.5,9.1-5.2,10.7ZM266.2,42.7c-3.8-.3-10.2,1.5-12.5,4.8-.8,1.1-.7,2.3,1.4,2.5,4,.1,8.5-4.2,11.1-7.3Z"/>
<path fill="#000000" d="M284.7,41.3c-3.3,1.7-7.4,2.1-8.9,1.5-7.2,12.5,13.4,5.9,19.3.7.5-.8,2.4-3.9,3.1-2.3-3.8,5.9-18,11.7-23.9,9-3.7-1.9-3.1-7.7,2.3-12.4,9.4-8.1,19.4-2.9,8.1,3.4ZM288.2,35.7c-.4-2.6-9.5,2.5-12,6.3,2.8,1.3,12.8-2.3,12-6.3Z"/>
<path fill="#000000" d="M297.6,39.1c2.1-3.3,13.4-21.7,14-22.7,1.8-2.9.3-5.6,3.3-8.2,1.1-1.5,1.9-.9,2.8.9.3,2.7-2.6,4.8-4.5,8.7-9.3,15.6-31.2,45-2.8,26.4,2-4.2,4.7-2.4.1.8-7.5,6.5-23.3,10.8-12.9-5.8Z"/>
</svg>
