<svg width="125" height="35" viewBox="0 0 125 35" fill="none" xmlns="http://www.w3.org/2000/svg">
<path d="M113.584 34.5754C113.422 34.5754 112.735 34.4945 111.521 34.3327C110.349 34.171 108.873 33.9283 107.093 33.6048C105.354 33.2409 103.555 32.8365 101.695 32.3917C99.8345 31.9064 98.1765 31.3605 96.7207 30.7539C96.6398 30.8752 96.2961 31.1987 95.6895 31.7244C95.0829 32.2501 94.4157 32.7758 93.6878 33.3015C93.0003 33.7868 92.4544 34.0294 92.05 34.0294C91.8074 34.0294 91.686 33.8879 91.686 33.6048C91.686 31.5829 92.2926 30.2686 93.5058 29.662C94.719 29.0554 96.195 28.7521 97.9339 28.7521C99.3088 27.9434 100.947 26.9526 102.847 25.7799C104.788 24.5667 106.77 23.2322 108.792 21.7764C110.814 20.3206 112.694 18.8041 114.433 17.227C116.172 15.6095 117.567 14.0121 118.618 12.435C119.71 10.8174 120.256 9.28074 120.256 7.82494C120.256 6.20738 119.609 4.95376 118.315 4.06411C117.021 3.13401 115.302 2.66896 113.159 2.66896C112.512 2.66896 111.804 2.72962 111.036 2.85093C110.308 2.93181 109.58 3.07335 108.852 3.27555C108.408 3.39686 107.72 3.61928 106.79 3.94279C105.86 4.2663 104.869 4.69091 103.818 5.21662C102.807 5.74233 101.937 6.32869 101.209 6.97572C100.522 7.5823 100.178 8.24955 100.178 8.97745C100.178 9.22009 100.239 9.46272 100.36 9.70536C100.522 9.94799 100.603 10.1906 100.603 10.4333C100.603 10.7972 100.461 10.9792 100.178 10.9792C99.8547 10.9792 99.4908 10.6557 99.0864 10.0086C98.7224 9.36162 98.5405 8.77526 98.5405 8.24955C98.5405 7.31945 98.9448 6.45001 99.7536 5.64123C100.603 4.83245 101.614 4.12477 102.787 3.51818C103.959 2.87116 105.112 2.34545 106.244 1.94106C107.376 1.53667 108.266 1.27381 108.913 1.15249C109.762 0.990738 110.612 0.869421 111.461 0.788544C112.31 0.667226 113.119 0.606567 113.887 0.606567C116.92 0.606567 119.427 1.19293 121.409 2.36567C123.39 3.5384 124.381 5.15596 124.381 7.21835C124.381 8.79548 123.815 10.413 122.683 12.071C121.55 13.729 120.054 15.3668 118.194 16.9844C116.374 18.6019 114.372 20.1588 112.189 21.6551C110.005 23.1109 107.821 24.4656 105.638 25.7192C103.494 26.9728 101.553 28.0647 99.8143 28.9948C103.13 29.5205 105.941 30.1675 108.246 30.9359C110.591 31.7042 112.613 32.0884 114.312 32.0884C115.848 32.0884 117.284 31.9266 118.618 31.6031C119.993 31.2796 120.782 30.7337 120.984 29.9653C121.186 29.4801 121.449 29.2374 121.773 29.2374C122.056 29.2374 122.197 29.4194 122.197 29.7833C122.197 30.5517 121.874 31.2392 121.227 31.8457C120.62 32.4119 119.852 32.8972 118.922 33.3015C117.992 33.7059 117.041 34.0092 116.071 34.2114C115.1 34.4541 114.271 34.5754 113.584 34.5754Z" fill="#B59835"/>
<path d="M71.3147 35C68.9288 35 66.9271 34.4541 65.3095 33.3622C63.7324 32.2704 62.5394 30.8146 61.7306 28.9948C60.9623 27.175 60.5781 25.1531 60.5781 22.9289C60.5781 20.6239 61.0432 18.2582 61.9733 15.8319C62.9438 13.3651 64.2783 11.0803 65.9767 8.97747C67.7156 6.87464 69.7376 5.1762 72.0426 3.88215C74.3881 2.54766 76.9357 1.88042 79.6856 1.88042C80.7774 1.88042 81.7278 2.16349 82.5365 2.72964C83.3453 3.25534 83.7497 3.98325 83.7497 4.91335C83.7497 5.47949 83.6284 5.76256 83.3858 5.76256C83.3858 5.76256 83.3655 5.76256 83.3251 5.76256C83.3251 5.72213 83.3049 5.68169 83.2644 5.64125C82.9409 5.0751 82.4759 4.71115 81.8693 4.54939C81.2627 4.3472 80.6966 4.2461 80.1708 4.2461C78.1893 4.2461 76.2078 4.79203 74.2263 5.88388C72.2448 6.9353 70.425 8.41132 68.767 10.312C67.1495 12.1722 65.8352 14.3154 64.8242 16.7418C63.8537 19.1277 63.3684 21.6349 63.3684 24.2634C63.3684 25.881 63.6111 27.3772 64.0963 28.7522C64.5816 30.1271 65.3499 31.2392 66.4013 32.0884C67.4932 32.9376 68.9086 33.3622 70.6474 33.3622C72.8716 33.3622 75.0351 32.7152 77.1379 31.4211C79.2407 30.1271 81.1414 28.4084 82.8398 26.2652C84.5383 24.1219 85.893 21.7562 86.9039 19.1681C87.9149 16.58 88.4204 14.0121 88.4204 11.4645C88.4204 8.31023 87.4903 5.803 85.6301 3.94281C85.064 3.37666 84.2754 2.91161 83.2644 2.54766C82.2535 2.14327 81.2223 1.83998 80.1708 1.63778C79.1599 1.39515 78.2904 1.21317 77.5625 1.09185C76.8346 0.970537 76.4707 0.889659 76.4707 0.84922C76.4707 0.647025 76.6324 0.465049 76.9559 0.303293C77.2795 0.101098 77.6636 0 78.1085 0C80.5752 0 82.7792 0.586366 84.7202 1.7591C86.7018 2.93183 88.2587 4.52917 89.391 6.55113C90.5637 8.57308 91.1501 10.8579 91.1501 13.4055C91.1501 15.9532 90.6243 18.5009 89.5729 21.0485C88.5215 23.5962 87.0657 25.9214 85.2055 28.0243C83.3858 30.1271 81.2829 31.8255 78.897 33.1196C76.5111 34.3732 73.9837 35 71.3147 35Z" fill="#B59835"/>
<path d="M40.6435 29.2831V24.7093C40.6435 23.5369 40.6307 23.3437 40.5018 23.086C40.373 22.8541 39.9994 22.8541 39.6773 22.8541C39.0846 22.8541 38.5177 22.9571 38.1699 23.2535C37.7962 23.524 37.4741 24.1296 37.3067 24.5805C37.2809 24.6578 37.2422 24.6964 37.1134 24.6707C36.9846 24.6449 36.9717 24.6063 36.9717 24.5161C37.0619 23.8719 37.1521 23.0473 37.2036 22.3903C38.6208 22.4547 39.9349 22.4547 41.262 22.4547C42.5761 22.4547 43.9418 22.4547 45.359 22.3903C45.4105 23.0473 45.5007 23.8719 45.578 24.5161C45.578 24.6063 45.5651 24.6449 45.4492 24.6707C45.2946 24.6964 45.2688 24.6578 45.243 24.5805C45.0884 24.1296 44.7792 23.5369 44.3927 23.2535C44.0577 22.9571 43.4908 22.8541 42.8467 22.8541C42.5246 22.8541 42.1896 22.8283 42.0092 23.1117C41.8288 23.3823 41.8417 23.975 41.8417 24.7093V29.2831C41.8417 30.5585 41.8288 30.7003 41.9835 30.9708C42.1252 31.2156 42.5632 31.2285 43.027 31.28C43.1172 31.2929 43.143 31.3187 43.143 31.4475C43.143 31.5892 43.1172 31.6279 43.027 31.6279C42.4859 31.5892 41.7644 31.5764 41.2491 31.5764C40.7208 31.5764 40.0509 31.5892 39.5613 31.6279C39.4711 31.6279 39.4454 31.5892 39.4454 31.4604C39.4454 31.3187 39.4711 31.2929 39.5613 31.28C39.9865 31.2285 40.3601 31.2156 40.5018 30.9708C40.6564 30.6745 40.6435 30.1334 40.6435 29.2831Z" fill="#B59835"/>
<path d="M28.0612 23.7559H27.9066L27.9581 29.2959C27.971 30.1076 28.0226 30.7003 28.19 30.9579C28.3575 31.2156 28.744 31.2543 29.1692 31.3058C29.2594 31.3058 29.2723 31.3316 29.2723 31.4604C29.2723 31.5892 29.2465 31.615 29.1692 31.615C28.6539 31.5892 28.1514 31.5764 27.6876 31.5764C27.2109 31.5764 26.6311 31.5892 26.1931 31.615C26.09 31.615 26.0642 31.5892 26.0642 31.4733C26.0642 31.3445 26.09 31.3187 26.1802 31.3058C26.5667 31.2543 26.9017 31.2156 27.0692 30.9451C27.2495 30.6616 27.314 30.0818 27.3268 29.2959L27.4041 24.6964C27.417 23.8848 27.3655 23.3823 27.198 23.1375C27.0305 22.9056 26.6053 22.8154 26.1415 22.7639C26.0385 22.751 26.0127 22.7252 26.0127 22.5964C26.0127 22.4289 26.0385 22.3903 26.1415 22.3903C26.5796 22.4031 27.0563 22.4289 27.3784 22.4289C27.7262 22.4289 28.0483 22.4289 28.6667 22.416C28.9502 22.9314 29.1821 23.2792 29.6588 23.975L32.5963 28.2781C33.0343 28.9094 33.3951 29.4505 33.7945 30.0818V28.4843L33.7816 24.6964C33.7816 23.9621 33.6914 23.3565 33.5239 23.086C33.3693 22.8283 32.9828 22.8025 32.5705 22.751C32.4674 22.7381 32.4417 22.7252 32.4417 22.5835C32.4417 22.416 32.4674 22.3903 32.5576 22.3903C33.0343 22.416 33.5497 22.4418 34.0135 22.4418C34.4902 22.4418 35.0571 22.416 35.4694 22.3903C35.5724 22.3903 35.5982 22.416 35.5982 22.5835C35.5982 22.7124 35.5724 22.7381 35.4694 22.751C35.0828 22.8025 34.7607 22.8283 34.6061 23.086C34.4387 23.3694 34.3742 23.975 34.3614 24.6964L34.2841 29.2959C34.2712 30.1591 34.2841 30.7905 34.3098 31.4733C33.6785 31.8212 33.6527 31.834 33.6141 31.834C33.5754 31.834 33.5368 31.8083 33.511 31.7696C33.1116 31.1125 32.8153 30.6745 32.0423 29.5536L28.0612 23.7559Z" fill="#B59835"/>
<path d="M23.1637 24.7093V29.2831C23.1637 30.5585 23.1508 30.7389 23.3055 30.9837C23.4472 31.2285 23.8337 31.2414 24.3233 31.2929C24.4135 31.3058 24.4392 31.3316 24.4392 31.4604C24.4392 31.5892 24.4135 31.6279 24.3104 31.6279C23.7564 31.6021 23.0864 31.5764 22.5453 31.5764C22.0428 31.5764 21.3858 31.6021 20.8833 31.6279C20.806 31.6279 20.7802 31.5892 20.7802 31.4604C20.7802 31.3316 20.806 31.3058 20.8833 31.2929C21.3214 31.2414 21.6563 31.2414 21.8109 30.9837C21.9913 30.7003 21.9784 30.1463 21.9784 29.2831V24.7093C21.9784 23.4854 21.9784 23.3437 21.8238 23.0602C21.6821 22.8154 21.3085 22.8025 20.8189 22.751C20.7416 22.7381 20.7158 22.7252 20.7158 22.5835C20.7158 22.4289 20.7416 22.3903 20.8189 22.3903C21.36 22.4289 22.0428 22.4676 22.5453 22.4676C23.0864 22.4676 23.7435 22.4289 24.2588 22.3903C24.349 22.3903 24.3748 22.4289 24.3748 22.5964C24.3748 22.7252 24.3362 22.7381 24.2588 22.751C23.8079 22.8025 23.4729 22.8154 23.3183 23.0602C23.1508 23.3565 23.1637 23.9234 23.1637 24.7093Z" fill="#B59835"/>
<path d="M14.1347 22.1841C16.8918 22.1841 18.9145 24.1682 18.9145 26.9768C18.9145 29.7855 16.8918 31.834 14.1347 31.834C11.3775 31.834 9.36768 29.7855 9.36768 27.0026C9.36768 24.2197 11.3775 22.1841 14.1347 22.1841ZM14.1347 22.6221C12.1634 22.6221 10.7849 24.3743 10.7849 26.9768C10.7849 29.6566 12.1377 31.3831 14.1347 31.3831C16.1188 31.3831 17.4844 29.6566 17.4844 27.0155C17.4844 24.3485 16.093 22.6221 14.1347 22.6221Z" fill="#B59835"/>
<path d="M2.51233 27.3633V29.283C2.51233 30.5585 2.51233 30.7389 2.64117 30.9708C2.78289 31.2284 3.19517 31.2413 3.68475 31.2929C3.78782 31.3057 3.81358 31.3315 3.81358 31.4604C3.81358 31.5892 3.78782 31.6278 3.68475 31.6278C3.13075 31.5892 2.46079 31.5763 1.94544 31.5763C1.40433 31.5763 0.721489 31.5892 0.219023 31.6278C0.128837 31.6278 0.115954 31.615 0.115954 31.4604C0.115954 31.3186 0.141721 31.3057 0.219023 31.2929C0.682838 31.2542 1.01781 31.2413 1.17242 30.9708C1.31414 30.6873 1.31414 30.1333 1.31414 29.283V24.7093C1.31414 23.4853 1.31414 23.3436 1.1853 23.0602C1.04358 22.8154 0.592652 22.8025 0.115954 22.7509C0.0257675 22.7381 0 22.7252 0 22.5835C0 22.4289 0.0257675 22.3902 0.115954 22.3902C0.65707 22.4289 1.36568 22.4546 1.89391 22.4546C2.38349 22.4546 3.18228 22.3773 4.01972 22.3773C6.55782 22.3773 7.43391 23.3694 7.43391 24.7995C7.43391 26.1651 6.59647 27.4149 3.51726 27.4149C3.18228 27.4149 2.80865 27.402 2.51233 27.3633ZM2.51233 24.6964V26.8995C2.79577 26.951 3.10498 26.9768 3.46572 26.9768C5.39828 26.9768 6.10689 26.0234 6.10689 24.851C6.10689 23.5111 5.2308 22.8154 3.74917 22.8154C3.36265 22.8154 2.86019 22.8411 2.6927 23.0859C2.49944 23.3565 2.51233 24.0007 2.51233 24.6964Z" fill="#B59835"/>
</svg>
