<svg width="116" height="35" viewBox="0 0 116 35" fill="none" xmlns="http://www.w3.org/2000/svg">
<path d="M93.6906 34.8786C93.448 34.8786 93.3267 34.7573 93.3267 34.5147C93.3267 33.7463 93.63 33.2206 94.2365 32.9375C94.8836 32.614 95.753 32.4118 96.8449 32.3309C97.9367 32.2096 99.1499 32.0681 100.484 31.9063C100.727 30.7336 101.172 29.1363 101.819 27.1143C102.506 25.0923 103.295 22.8682 104.185 20.4419C105.115 18.0155 106.065 15.5892 107.036 13.1628C108.006 10.7365 108.916 8.53255 109.765 6.55104C109.28 7.03631 108.673 7.62267 107.945 8.31014C107.217 8.9976 106.449 9.70528 105.64 10.4332C104.832 11.1207 104.083 11.707 103.396 12.1923C102.749 12.6371 102.243 12.8595 101.88 12.8595C101.677 12.8595 101.576 12.7787 101.576 12.6169C101.617 12.4551 102.001 12.0103 102.729 11.2824C103.497 10.5545 104.367 9.72551 105.337 8.79541C106.348 7.86531 107.177 7.03631 107.824 6.3084C108.35 5.74226 108.956 5.01435 109.644 4.12469C110.331 3.1946 110.999 2.3656 111.646 1.63769C112.293 0.909789 112.818 0.545837 113.223 0.545837C113.587 0.545837 114.092 0.667154 114.739 0.909788C115.427 1.15242 115.77 1.49615 115.77 1.94099C114.517 4.40777 113.223 7.03631 111.888 9.8266C110.554 12.5765 109.26 15.3263 108.006 18.0762C106.793 20.826 105.721 23.3939 104.791 25.7798C103.861 28.1253 103.153 30.1472 102.668 31.8457H105.216C106.025 31.8457 106.833 31.8659 107.642 31.9063C108.491 31.9063 109.26 31.967 109.947 32.0883C110.352 32.1287 110.554 32.3107 110.554 32.6342C110.554 33.0386 110.19 33.2408 109.462 33.2408C108.855 33.2408 108.208 33.2408 107.521 33.2408C106.874 33.2004 106.207 33.1802 105.519 33.1802C105.034 33.1802 104.528 33.2004 104.003 33.2408C103.477 33.2408 102.931 33.261 102.365 33.3015V33.3621C102.082 33.7261 101.637 33.9081 101.03 33.9081C100.747 33.9081 100.525 33.807 100.363 33.6048C99.3116 33.7665 98.1996 34.0092 97.0268 34.3327C95.8541 34.6966 94.742 34.8786 93.6906 34.8786Z" fill="#B59835"/>
<path d="M72.2117 35C69.8258 35 67.824 34.4541 66.2065 33.3622C64.6293 32.2704 63.4364 30.8146 62.6276 28.9948C61.8593 27.175 61.4751 25.1531 61.4751 22.9289C61.4751 20.6239 61.9401 18.2582 62.8702 15.8319C63.8408 13.3651 65.1753 11.0803 66.8737 8.97747C68.6126 6.87464 70.6345 5.1762 72.9396 3.88215C75.285 2.54766 77.8327 1.88042 80.5826 1.88042C81.6744 1.88042 82.6247 2.16349 83.4335 2.72964C84.2423 3.25534 84.6467 3.98325 84.6467 4.91335C84.6467 5.47949 84.5254 5.76256 84.2827 5.76256C84.2827 5.76256 84.2625 5.76256 84.2221 5.76256C84.2221 5.72213 84.2018 5.68169 84.1614 5.64125C83.8379 5.0751 83.3728 4.71115 82.7663 4.54939C82.1597 4.3472 81.5935 4.2461 81.0678 4.2461C79.0863 4.2461 77.1048 4.79203 75.1233 5.88388C73.1418 6.9353 71.322 8.41132 69.664 10.312C68.0464 12.1722 66.7322 14.3154 65.7212 16.7418C64.7507 19.1277 64.2654 21.6349 64.2654 24.2634C64.2654 25.881 64.508 27.3772 64.9933 28.7522C65.4786 30.1271 66.2469 31.2392 67.2983 32.0884C68.3902 32.9376 69.8055 33.3622 71.5444 33.3622C73.7686 33.3622 75.9321 32.7152 78.0349 31.4211C80.1377 30.1271 82.0384 28.4084 83.7368 26.2652C85.4352 24.1219 86.7899 21.7562 87.8009 19.1681C88.8119 16.58 89.3174 14.0121 89.3174 11.4645C89.3174 8.31023 88.3873 5.803 86.5271 3.94281C85.9609 3.37666 85.1724 2.91161 84.1614 2.54766C83.1504 2.14327 82.1192 1.83998 81.0678 1.63778C80.0568 1.39515 79.1874 1.21317 78.4595 1.09185C77.7316 0.970537 77.3676 0.889659 77.3676 0.84922C77.3676 0.647025 77.5294 0.465049 77.8529 0.303293C78.1764 0.101098 78.5606 0 79.0054 0C81.4722 0 83.6761 0.586366 85.6172 1.7591C87.5987 2.93183 89.1556 4.52917 90.2879 6.55113C91.4607 8.57308 92.047 10.8579 92.047 13.4055C92.047 15.9532 91.5213 18.5009 90.4699 21.0485C89.4185 23.5962 87.9627 25.9214 86.1025 28.0243C84.2827 30.1271 82.1799 31.8255 79.794 33.1196C77.4081 34.3732 74.8806 35 72.2117 35Z" fill="#B59835"/>
<path d="M41.5383 29.2863V24.7104C41.5383 23.5374 41.5254 23.3441 41.3965 23.0863C41.2676 22.8543 40.8938 22.8543 40.5716 22.8543C39.9787 22.8543 39.4115 22.9574 39.0635 23.2539C38.6897 23.5246 38.3674 24.1304 38.1999 24.5815C38.1741 24.6588 38.1354 24.6975 38.0065 24.6717C37.8776 24.646 37.8647 24.6073 37.8647 24.5171C37.955 23.8726 38.0452 23.0476 38.0968 22.3903C39.5146 22.4547 40.8294 22.4547 42.157 22.4547C43.4718 22.4547 44.8381 22.4547 46.2559 22.3903C46.3075 23.0476 46.3977 23.8726 46.4751 24.5171C46.4751 24.6073 46.4622 24.646 46.3462 24.6717C46.1915 24.6975 46.1657 24.6588 46.1399 24.5815C45.9853 24.1304 45.6759 23.5374 45.2892 23.2539C44.9541 22.9574 44.3869 22.8543 43.7424 22.8543C43.4202 22.8543 43.0851 22.8285 42.9046 23.1121C42.7242 23.3828 42.7371 23.9757 42.7371 24.7104V29.2863C42.7371 30.5623 42.7242 30.7041 42.8788 30.9748C43.0206 31.2197 43.4589 31.2326 43.9229 31.2842C44.0131 31.2971 44.0389 31.3228 44.0389 31.4517C44.0389 31.5935 44.0131 31.6322 43.9229 31.6322C43.3815 31.5935 42.6597 31.5806 42.1441 31.5806C41.6156 31.5806 40.9454 31.5935 40.4556 31.6322C40.3653 31.6322 40.3396 31.5935 40.3396 31.4646C40.3396 31.3228 40.3653 31.2971 40.4556 31.2842C40.8809 31.2326 41.2547 31.2197 41.3965 30.9748C41.5512 30.6783 41.5383 30.137 41.5383 29.2863Z" fill="#B59835"/>
<path d="M28.9489 23.7566H28.7942L28.8458 29.2991C28.8586 30.1112 28.9102 30.7041 29.0778 30.9619C29.2453 31.2197 29.632 31.2584 30.0574 31.3099C30.1476 31.3099 30.1605 31.3357 30.1605 31.4646C30.1605 31.5935 30.1347 31.6193 30.0574 31.6193C29.5418 31.5935 29.0391 31.5806 28.5751 31.5806C28.0982 31.5806 27.5181 31.5935 27.0799 31.6193C26.9768 31.6193 26.951 31.5935 26.951 31.4775C26.951 31.3486 26.9768 31.3228 27.067 31.3099C27.4537 31.2584 27.7888 31.2197 27.9564 30.949C28.1368 30.6655 28.2013 30.0854 28.2142 29.2991L28.2915 24.6975C28.3044 23.8855 28.2528 23.3828 28.0853 23.1379C27.9177 22.9058 27.4923 22.8156 27.0283 22.7641C26.9252 22.7512 26.8994 22.7254 26.8994 22.5965C26.8994 22.4289 26.9252 22.3903 27.0283 22.3903C27.4666 22.4031 27.9435 22.4289 28.2657 22.4289C28.6137 22.4289 28.936 22.4289 29.5547 22.416C29.8383 22.9316 30.0703 23.2796 30.5472 23.9757L33.4861 28.2809C33.9243 28.9125 34.2852 29.4538 34.6848 30.0854V28.4871L34.6719 24.6975C34.6719 23.9628 34.5817 23.357 34.4141 23.0863C34.2594 22.8285 33.8727 22.8027 33.4603 22.7512C33.3572 22.7383 33.3314 22.7254 33.3314 22.5836C33.3314 22.416 33.3572 22.3903 33.4474 22.3903C33.9243 22.416 34.4399 22.4418 34.9039 22.4418C35.3808 22.4418 35.948 22.416 36.3605 22.3903C36.4636 22.3903 36.4894 22.416 36.4894 22.5836C36.4894 22.7125 36.4636 22.7383 36.3605 22.7512C35.9738 22.8027 35.6515 22.8285 35.4968 23.0863C35.3293 23.3699 35.2648 23.9757 35.2519 24.6975L35.1746 29.2991C35.1617 30.1628 35.1746 30.7944 35.2004 31.4775C34.5688 31.8255 34.543 31.8384 34.5043 31.8384C34.4657 31.8384 34.427 31.8126 34.4012 31.774C34.0016 31.1166 33.7052 30.6783 32.9318 29.5569L28.9489 23.7566Z" fill="#B59835"/>
<path d="M24.0491 24.7104V29.2863C24.0491 30.5623 24.0363 30.7428 24.1909 30.9877C24.3327 31.2326 24.7194 31.2455 25.2092 31.2971C25.2994 31.3099 25.3252 31.3357 25.3252 31.4646C25.3252 31.5935 25.2994 31.6322 25.1963 31.6322C24.6421 31.6064 23.9718 31.5806 23.4304 31.5806C22.9277 31.5806 22.2704 31.6064 21.7677 31.6322C21.6903 31.6322 21.6645 31.5935 21.6645 31.4646C21.6645 31.3357 21.6903 31.3099 21.7677 31.2971C22.2059 31.2455 22.541 31.2455 22.6957 30.9877C22.8762 30.7041 22.8633 30.1499 22.8633 29.2863V24.7104C22.8633 23.4859 22.8633 23.3441 22.7086 23.0605C22.5668 22.8156 22.193 22.8027 21.7032 22.7512C21.6259 22.7383 21.6001 22.7254 21.6001 22.5836C21.6001 22.4289 21.6259 22.3903 21.7032 22.3903C22.2446 22.4289 22.9277 22.4676 23.4304 22.4676C23.9718 22.4676 24.6292 22.4289 25.1448 22.3903C25.235 22.3903 25.2608 22.4289 25.2608 22.5965C25.2608 22.7254 25.2221 22.7383 25.1448 22.7512C24.6936 22.8027 24.3585 22.8156 24.2038 23.0605C24.0363 23.357 24.0491 23.9241 24.0491 24.7104Z" fill="#B59835"/>
<path d="M15.0158 22.184C17.7742 22.184 19.7979 24.169 19.7979 26.9789C19.7979 29.7889 17.7742 31.8384 15.0158 31.8384C12.2574 31.8384 10.2466 29.7889 10.2466 27.0047C10.2466 24.2205 12.2574 22.184 15.0158 22.184ZM15.0158 22.6222C13.0436 22.6222 11.6645 24.3752 11.6645 26.9789C11.6645 29.66 13.0179 31.3872 15.0158 31.3872C17.0008 31.3872 18.3671 29.66 18.3671 27.0176C18.3671 24.3494 16.975 22.6222 15.0158 22.6222Z" fill="#B59835"/>
<path d="M3.38849 27.3657V29.2863C3.38849 30.5623 3.38849 30.7428 3.51739 30.9748C3.65918 31.2326 4.07165 31.2455 4.56146 31.2971C4.66457 31.31 4.69035 31.3357 4.69035 31.4646C4.69035 31.5935 4.66457 31.6322 4.56146 31.6322C4.0072 31.5935 3.33693 31.5806 2.82135 31.5806C2.27998 31.5806 1.59682 31.5935 1.09412 31.6322C1.0039 31.6322 0.991007 31.6193 0.991007 31.4646C0.991007 31.3228 1.01679 31.31 1.09412 31.2971C1.55815 31.2584 1.89329 31.2455 2.04796 30.9748C2.18975 30.6912 2.18975 30.137 2.18975 29.2863V24.7104C2.18975 23.4859 2.18975 23.3441 2.06085 23.0605C1.91907 22.8156 1.46793 22.8027 0.991007 22.7512C0.900779 22.7383 0.875 22.7254 0.875 22.5836C0.875 22.4289 0.900779 22.3903 0.991007 22.3903C1.53237 22.4289 2.24131 22.4547 2.76979 22.4547C3.2596 22.4547 4.05876 22.3774 4.89659 22.3774C7.43586 22.3774 8.31236 23.3699 8.31236 24.8006C8.31236 26.167 7.47453 27.4173 4.39389 27.4173C4.05876 27.4173 3.68496 27.4044 3.38849 27.3657ZM3.38849 24.6975V26.9017C3.67207 26.9532 3.98142 26.979 4.34233 26.979C6.27579 26.979 6.98472 26.0252 6.98472 24.8522C6.98472 23.5117 6.10822 22.8156 4.6259 22.8156C4.23921 22.8156 3.73651 22.8414 3.56895 23.0863C3.3756 23.357 3.38849 24.0015 3.38849 24.6975Z" fill="#B59835"/>
</svg>
