<svg width="122" height="35" viewBox="0 0 122 35" fill="none" xmlns="http://www.w3.org/2000/svg">
<path d="M101.614 35C100.772 35 99.83 34.9199 98.7876 34.7595C97.7853 34.6392 96.8231 34.3786 95.901 33.9777C95.019 33.5768 94.2773 32.9955 93.6759 32.2337C93.1146 31.472 92.834 30.4497 92.834 29.1667C92.834 28.4852 92.9743 27.8237 93.2549 27.1822C93.5757 26.5006 93.9966 26.1599 94.5178 26.1599C95.1994 26.1599 95.5402 26.4806 95.5402 27.1221C95.5402 27.4428 95.48 27.7836 95.3597 28.1444C95.2796 28.4651 95.2395 28.8059 95.2395 29.1667C95.3197 30.3294 95.7206 31.2515 96.4422 31.933C97.1639 32.6146 98.0058 33.0957 98.968 33.3763C99.9703 33.6971 100.872 33.8574 101.674 33.8574C103.318 33.8574 104.982 33.5167 106.666 32.8351C108.349 32.1536 109.893 31.2114 111.296 30.0087C112.739 28.7658 113.902 27.3626 114.784 25.799C115.666 24.2355 116.107 22.5516 116.107 20.7475C116.107 19.625 115.686 18.6227 114.844 17.7407C114.002 16.8186 112.719 16.117 110.995 15.6359C109.993 15.6759 109.031 15.8163 108.109 16.0568C107.227 16.2573 106.445 16.3575 105.763 16.3575H105.403C104.881 16.3174 104.501 16.1771 104.26 15.9365C104.06 15.6559 103.959 15.3753 103.959 15.0946C103.959 14.7739 104.06 14.5133 104.26 14.3128C104.501 14.0723 104.861 13.952 105.343 13.952C105.784 13.952 106.265 14.0121 106.786 14.1324C107.347 14.2126 107.908 14.2527 108.47 14.2527C110.073 14.2527 111.577 13.952 112.98 13.3506C114.383 12.7092 115.506 11.8873 116.348 10.885C117.23 9.88272 117.671 8.80025 117.671 7.6376C117.671 6.35467 117.109 5.23211 115.987 4.26991C114.864 3.26762 113.361 2.76648 111.477 2.76648C110.715 2.76648 109.833 2.88675 108.83 3.1273C107.828 3.32776 106.846 3.64849 105.884 4.0895C104.962 4.5305 104.18 5.11183 103.538 5.83348C102.937 6.51503 102.636 7.33691 102.636 8.29911C102.636 8.49956 102.516 8.67998 102.276 8.84034C102.075 9.00071 101.875 9.08089 101.674 9.08089C101.434 9.08089 101.313 8.90048 101.313 8.53965C101.313 6.8959 101.814 5.51275 102.817 4.39018C103.819 3.22753 105.162 2.36556 106.846 1.80428C108.53 1.20291 110.414 0.902222 112.499 0.902222C113.982 0.902222 115.365 1.12273 116.648 1.56373C117.971 2.00474 119.034 2.68629 119.836 3.6084C120.637 4.5305 121.038 5.7132 121.038 7.1565C121.038 8.67997 120.477 10.2235 119.355 11.7871C118.232 13.3506 116.508 14.4932 114.183 15.2149C115.706 15.255 116.989 15.7962 118.031 16.8386C119.114 17.881 119.655 19.2641 119.655 20.9881C119.655 23.153 119.074 25.0974 117.911 26.8214C116.789 28.5453 115.325 30.0287 113.521 31.2715C111.717 32.4743 109.753 33.3964 107.628 34.0379C105.543 34.6793 103.538 35 101.614 35Z" fill="#B59835"/>
<path d="M71.2224 34.6992C68.857 34.6992 66.8725 34.158 65.2688 33.0755C63.7053 31.993 62.5226 30.5497 61.7207 28.7456C60.959 26.9415 60.5781 24.9369 60.5781 22.7319C60.5781 20.4467 61.0392 18.1013 61.9613 15.6958C62.9235 13.2502 64.2465 10.9851 65.9303 8.90031C67.6543 6.81556 69.6589 5.13171 71.9441 3.84878C74.2694 2.52577 76.7951 1.86426 79.5214 1.86426C80.6038 1.86426 81.546 2.1449 82.3478 2.70618C83.1496 3.22737 83.5506 3.94901 83.5506 4.87112C83.5506 5.4324 83.4303 5.71304 83.1897 5.71304C83.1897 5.71304 83.1697 5.71304 83.1296 5.71304C83.1296 5.67295 83.1096 5.63286 83.0695 5.59276C82.7487 5.03148 82.2877 4.67066 81.6863 4.51029C81.0849 4.30984 80.5236 4.20961 80.0025 4.20961C78.038 4.20961 76.0735 4.75084 74.109 5.83331C72.1445 6.87569 70.3404 8.33903 68.6967 10.2233C67.093 12.0675 65.79 14.1924 64.7877 16.5979C63.8255 18.9633 63.3444 21.449 63.3444 24.0549C63.3444 25.6586 63.585 27.1419 64.0661 28.5051C64.5472 29.8682 65.3089 30.9707 66.3513 31.8126C67.4338 32.6545 68.837 33.0755 70.5609 33.0755C72.7659 33.0755 74.9108 32.434 76.9956 31.1511C79.0804 29.8682 80.9647 28.1643 82.6485 26.0394C84.3323 23.9146 85.6754 21.5692 86.6777 19.0034C87.68 16.4375 88.1811 13.8917 88.1811 11.3659C88.1811 8.2388 87.259 5.75313 85.4148 3.90892C84.8535 3.34764 84.0717 2.88659 83.0695 2.52576C82.0672 2.12485 81.0448 1.82416 80.0025 1.62371C79.0002 1.38316 78.1382 1.20274 77.4166 1.08247C76.6949 0.962196 76.3341 0.882012 76.3341 0.841922C76.3341 0.641464 76.4945 0.461052 76.8152 0.300686C77.1359 0.100229 77.5168 0 77.9578 0C80.4034 0 82.5884 0.581326 84.5128 1.74398C86.4772 2.90663 88.0208 4.49025 89.1433 6.49482C90.306 8.4994 90.8873 10.7646 90.8873 13.2903C90.8873 15.8161 90.3661 18.3419 89.3237 20.8676C88.2814 23.3934 86.8381 25.6987 84.9939 27.7834C83.1897 29.8682 81.105 31.552 78.7396 32.8349C76.3742 34.0778 73.8685 34.6992 71.2224 34.6992Z" fill="#B59835"/>
<path d="M40.6435 29.2832V24.7095C40.6435 23.537 40.6307 23.3438 40.5018 23.0861C40.373 22.8542 39.9994 22.8542 39.6773 22.8542C39.0846 22.8542 38.5177 22.9573 38.1699 23.2536C37.7962 23.5242 37.4741 24.1297 37.3067 24.5806C37.2809 24.6579 37.2422 24.6966 37.1134 24.6708C36.9846 24.645 36.9717 24.6064 36.9717 24.5162C37.0619 23.872 37.1521 23.0475 37.2036 22.3904C38.6208 22.4548 39.9349 22.4548 41.262 22.4548C42.5761 22.4548 43.9418 22.4548 45.359 22.3904C45.4105 23.0475 45.5007 23.872 45.578 24.5162C45.578 24.6064 45.5651 24.645 45.4492 24.6708C45.2946 24.6966 45.2688 24.6579 45.243 24.5806C45.0884 24.1297 44.7792 23.537 44.3927 23.2536C44.0577 22.9573 43.4908 22.8542 42.8467 22.8542C42.5246 22.8542 42.1896 22.8284 42.0092 23.1119C41.8288 23.3824 41.8417 23.9751 41.8417 24.7095V29.2832C41.8417 30.5587 41.8288 30.7004 41.9835 30.9709C42.1252 31.2157 42.5632 31.2286 43.027 31.2802C43.1172 31.293 43.143 31.3188 43.143 31.4476C43.143 31.5894 43.1172 31.628 43.027 31.628C42.4859 31.5894 41.7644 31.5765 41.2491 31.5765C40.7208 31.5765 40.0509 31.5894 39.5613 31.628C39.4711 31.628 39.4454 31.5894 39.4454 31.4605C39.4454 31.3188 39.4711 31.293 39.5613 31.2802C39.9865 31.2286 40.3601 31.2157 40.5018 30.9709C40.6564 30.6746 40.6435 30.1335 40.6435 29.2832Z" fill="#B59835"/>
<path d="M28.0612 23.7559H27.9066L27.9581 29.2959C27.971 30.1076 28.0226 30.7003 28.19 30.9579C28.3575 31.2156 28.744 31.2543 29.1692 31.3058C29.2594 31.3058 29.2723 31.3316 29.2723 31.4604C29.2723 31.5892 29.2465 31.615 29.1692 31.615C28.6539 31.5892 28.1514 31.5764 27.6876 31.5764C27.2109 31.5764 26.6311 31.5892 26.1931 31.615C26.09 31.615 26.0642 31.5892 26.0642 31.4733C26.0642 31.3445 26.09 31.3187 26.1802 31.3058C26.5667 31.2543 26.9017 31.2156 27.0692 30.9451C27.2495 30.6616 27.314 30.0818 27.3268 29.2959L27.4041 24.6964C27.417 23.8848 27.3655 23.3823 27.198 23.1375C27.0305 22.9056 26.6053 22.8154 26.1415 22.7639C26.0385 22.751 26.0127 22.7252 26.0127 22.5964C26.0127 22.4289 26.0385 22.3903 26.1415 22.3903C26.5796 22.4031 27.0563 22.4289 27.3784 22.4289C27.7262 22.4289 28.0483 22.4289 28.6667 22.416C28.9502 22.9314 29.1821 23.2792 29.6588 23.975L32.5963 28.2781C33.0343 28.9094 33.3951 29.4505 33.7945 30.0818V28.4843L33.7816 24.6964C33.7816 23.9621 33.6914 23.3565 33.5239 23.086C33.3693 22.8283 32.9828 22.8025 32.5705 22.751C32.4674 22.7381 32.4417 22.7252 32.4417 22.5835C32.4417 22.416 32.4674 22.3903 32.5576 22.3903C33.0343 22.416 33.5497 22.4418 34.0135 22.4418C34.4902 22.4418 35.0571 22.416 35.4694 22.3903C35.5724 22.3903 35.5982 22.416 35.5982 22.5835C35.5982 22.7124 35.5724 22.7381 35.4694 22.751C35.0828 22.8025 34.7607 22.8283 34.6061 23.086C34.4387 23.3694 34.3742 23.975 34.3614 24.6964L34.2841 29.2959C34.2712 30.1591 34.2841 30.7905 34.3098 31.4733C33.6785 31.8212 33.6527 31.834 33.6141 31.834C33.5754 31.834 33.5368 31.8083 33.511 31.7696C33.1116 31.1125 32.8153 30.6745 32.0423 29.5536L28.0612 23.7559Z" fill="#B59835"/>
<path d="M23.1637 24.7093V29.2831C23.1637 30.5585 23.1508 30.7389 23.3055 30.9837C23.4472 31.2285 23.8337 31.2414 24.3233 31.2929C24.4135 31.3058 24.4392 31.3316 24.4392 31.4604C24.4392 31.5892 24.4135 31.6279 24.3104 31.6279C23.7564 31.6021 23.0864 31.5764 22.5453 31.5764C22.0428 31.5764 21.3858 31.6021 20.8833 31.6279C20.806 31.6279 20.7802 31.5892 20.7802 31.4604C20.7802 31.3316 20.806 31.3058 20.8833 31.2929C21.3214 31.2414 21.6563 31.2414 21.8109 30.9837C21.9913 30.7003 21.9784 30.1463 21.9784 29.2831V24.7093C21.9784 23.4854 21.9784 23.3437 21.8238 23.0602C21.6821 22.8154 21.3085 22.8025 20.8189 22.751C20.7416 22.7381 20.7158 22.7252 20.7158 22.5835C20.7158 22.4289 20.7416 22.3903 20.8189 22.3903C21.36 22.4289 22.0428 22.4676 22.5453 22.4676C23.0864 22.4676 23.7435 22.4289 24.2588 22.3903C24.349 22.3903 24.3748 22.4289 24.3748 22.5964C24.3748 22.7252 24.3361 22.7381 24.2588 22.751C23.8079 22.8025 23.4729 22.8154 23.3183 23.0602C23.1508 23.3565 23.1637 23.9234 23.1637 24.7093Z" fill="#B59835"/>
<path d="M14.1347 22.1841C16.8918 22.1841 18.9145 24.1682 18.9145 26.9768C18.9145 29.7855 16.8918 31.834 14.1347 31.834C11.3775 31.834 9.36768 29.7855 9.36768 27.0026C9.36768 24.2197 11.3775 22.1841 14.1347 22.1841ZM14.1347 22.6221C12.1634 22.6221 10.7849 24.3743 10.7849 26.9768C10.7849 29.6566 12.1377 31.3831 14.1347 31.3831C16.1188 31.3831 17.4844 29.6566 17.4844 27.0155C17.4844 24.3485 16.093 22.6221 14.1347 22.6221Z" fill="#B59835"/>
<path d="M2.51233 27.3633V29.283C2.51233 30.5585 2.51233 30.7389 2.64117 30.9708C2.78289 31.2284 3.19517 31.2413 3.68475 31.2929C3.78782 31.3057 3.81358 31.3315 3.81358 31.4604C3.81358 31.5892 3.78782 31.6278 3.68475 31.6278C3.13075 31.5892 2.46079 31.5763 1.94544 31.5763C1.40433 31.5763 0.721489 31.5892 0.219023 31.6278C0.128837 31.6278 0.115954 31.615 0.115954 31.4604C0.115954 31.3186 0.141721 31.3057 0.219023 31.2929C0.682838 31.2542 1.01781 31.2413 1.17242 30.9708C1.31414 30.6873 1.31414 30.1333 1.31414 29.283V24.7093C1.31414 23.4853 1.31414 23.3436 1.1853 23.0602C1.04358 22.8154 0.592652 22.8025 0.115954 22.7509C0.0257675 22.7381 0 22.7252 0 22.5835C0 22.4289 0.0257675 22.3902 0.115954 22.3902C0.65707 22.4289 1.36568 22.4546 1.89391 22.4546C2.38349 22.4546 3.18228 22.3773 4.01972 22.3773C6.55782 22.3773 7.43391 23.3694 7.43391 24.7995C7.43391 26.1651 6.59647 27.4149 3.51726 27.4149C3.18228 27.4149 2.80865 27.402 2.51233 27.3633ZM2.51233 24.6964V26.8995C2.79577 26.951 3.10498 26.9768 3.46572 26.9768C5.39828 26.9768 6.10689 26.0234 6.10689 24.851C6.10689 23.5111 5.2308 22.8154 3.74917 22.8154C3.36265 22.8154 2.86019 22.8411 2.6927 23.0859C2.49944 23.3565 2.51233 24.0007 2.51233 24.6964Z" fill="#B59835"/>
</svg>
