<svg width="124" height="35" viewBox="0 0 124 35" fill="none" xmlns="http://www.w3.org/2000/svg">
<path d="M107.224 35C106.792 35 106.576 34.784 106.576 34.3519C106.576 33.4091 106.91 31.8182 107.577 29.5791C108.284 27.3008 109.09 24.8457 109.993 22.2138L101.155 21.33C100.919 21.2907 100.683 21.271 100.448 21.271C100.251 21.271 100.035 21.271 99.7996 21.271C98.7783 21.271 97.9141 21.4675 97.207 21.8603C96.5393 22.2138 95.9697 22.587 95.4983 22.9798C95.0662 23.3333 94.6734 23.5101 94.3198 23.5101C94.202 23.5101 94.1431 23.4119 94.1431 23.2155C94.1431 22.2334 94.6537 21.271 95.6751 20.3283C96.6964 19.3462 98.1498 18.2267 100.035 16.9697C101.96 15.6734 104.219 14.0825 106.811 12.197C108.501 10.9792 110.111 9.68294 111.643 8.30808C113.175 6.89394 114.53 5.55836 115.709 4.30135C116.926 3.04433 117.909 2.02301 118.655 1.23738C119.401 0.412458 119.814 0 119.892 0C120.246 0 120.717 0.216049 121.306 0.648147C121.896 1.08025 122.19 1.47306 122.19 1.8266C122.19 1.98373 122.151 2.08193 122.072 2.12121C120.815 4.75309 119.401 7.58137 117.83 10.6061C116.259 13.5915 114.766 16.6554 113.352 19.798C114.53 19.7194 115.787 19.523 117.123 19.2088C118.458 18.8945 119.637 18.5017 120.658 18.0303C121.68 17.5196 122.269 16.9304 122.426 16.2626C122.622 15.7127 122.897 15.4377 123.251 15.4377C123.447 15.4377 123.545 15.5948 123.545 15.9091C123.545 16.9697 123.133 17.8928 122.308 18.6785C121.522 19.4641 120.521 20.1319 119.303 20.6818C118.125 21.1925 116.926 21.5853 115.709 21.8603C114.53 22.1352 113.529 22.2727 112.704 22.2727C112.389 22.2727 112.036 22.6263 111.643 23.3333C111.29 24.0404 110.936 24.9439 110.582 26.0438C110.268 27.1437 109.954 28.2828 109.64 29.4613C109.365 30.6004 109.129 31.6218 108.933 32.5253C108.776 33.4287 108.658 34.0376 108.579 34.3519V34.5286C108.265 34.8429 107.813 35 107.224 35ZM110.995 19.7391C111.702 17.8143 112.409 15.968 113.116 14.2003C113.823 12.4327 114.452 10.881 115.002 9.54545C115.591 8.17059 116.003 7.18855 116.239 6.59933C115.65 7.22783 114.668 8.09203 113.293 9.19192C111.957 10.2525 110.465 11.4113 108.815 12.6684C107.165 13.8861 105.554 15.0645 103.983 16.2037C102.451 17.3036 101.174 18.1874 100.153 18.8552H100.507L101.273 18.7963H101.626C103.237 18.7963 104.867 18.9338 106.517 19.2088C108.206 19.4444 109.699 19.6212 110.995 19.7391Z" fill="#B59835"/>
<path d="M71.0074 34.2339C68.6898 34.2339 66.7454 33.7036 65.1741 32.643C63.6421 31.5824 62.4833 30.1683 61.6977 28.4006C60.9513 26.6329 60.5781 24.6688 60.5781 22.5083C60.5781 20.2693 61.0299 17.9713 61.9333 15.6144C62.8761 13.2182 64.1724 10.9988 65.8222 8.95613C67.5113 6.91348 69.4754 5.26365 71.7145 4.00664C73.9928 2.71034 76.4676 2.0622 79.1387 2.0622C80.1993 2.0622 81.1225 2.33717 81.9081 2.88711C82.6937 3.39777 83.0865 4.10484 83.0865 5.00832C83.0865 5.55827 82.9687 5.83324 82.733 5.83324C82.733 5.83324 82.7134 5.83324 82.6741 5.83324C82.6741 5.79396 82.6544 5.75467 82.6152 5.71539C82.3009 5.16545 81.8492 4.81191 81.2599 4.65479C80.6707 4.45838 80.1208 4.36017 79.6101 4.36017C77.6853 4.36017 75.7605 4.89048 73.8357 5.95108C71.9109 6.97241 70.1432 8.40619 68.5327 10.2524C66.9614 12.0594 65.6847 14.1413 64.7027 16.4982C63.7599 18.8158 63.2886 21.2513 63.2886 23.8046C63.2886 25.3759 63.5243 26.8293 63.9956 28.1649C64.467 29.5005 65.2134 30.5807 66.2347 31.4056C67.2953 32.2305 68.6702 32.643 70.3593 32.643C72.5198 32.643 74.6213 32.0145 76.664 30.7575C78.7066 29.5005 80.5529 27.831 82.2027 25.7491C83.8525 23.6671 85.1685 21.3692 86.1505 18.8551C87.1326 16.3411 87.6236 13.8467 87.6236 11.372C87.6236 8.30799 86.7201 5.87252 84.9131 4.06556C84.3632 3.51562 83.5972 3.06388 82.6152 2.71034C81.6331 2.31753 80.6314 2.02291 79.6101 1.82651C78.6281 1.59081 77.7835 1.41405 77.0764 1.2962C76.3694 1.17836 76.0158 1.09979 76.0158 1.06051C76.0158 0.864103 76.173 0.687335 76.4872 0.530208C76.8015 0.3338 77.1746 0.235596 77.6067 0.235596C80.0029 0.235596 82.1438 0.80518 84.0293 1.94435C85.9541 3.08352 87.4665 4.63515 88.5663 6.59923C89.7055 8.56332 90.2751 10.7827 90.2751 13.2575C90.2751 15.7322 89.7644 18.207 88.7431 20.6817C87.7218 23.1565 86.3076 25.4152 84.5007 27.4578C82.733 29.5005 80.6904 31.1503 78.3727 32.4073C76.0551 33.625 73.6 34.2339 71.0074 34.2339Z" fill="#B59835"/>
<path d="M40.6435 31.4912V26.9175C40.6435 25.745 40.6307 25.5518 40.5018 25.2941C40.373 25.0622 39.9994 25.0622 39.6773 25.0622C39.0846 25.0622 38.5177 25.1653 38.1699 25.4616C37.7962 25.7322 37.4741 26.3377 37.3067 26.7886C37.2809 26.8659 37.2422 26.9046 37.1134 26.8788C36.9846 26.853 36.9717 26.8144 36.9717 26.7242C37.0619 26.08 37.1521 25.2555 37.2036 24.5984C38.6208 24.6628 39.9349 24.6628 41.262 24.6628C42.5761 24.6628 43.9418 24.6628 45.359 24.5984C45.4105 25.2555 45.5007 26.08 45.578 26.7242C45.578 26.8144 45.5651 26.853 45.4492 26.8788C45.2946 26.9046 45.2688 26.8659 45.243 26.7886C45.0884 26.3377 44.7792 25.745 44.3927 25.4616C44.0577 25.1653 43.4908 25.0622 42.8467 25.0622C42.5246 25.0622 42.1896 25.0364 42.0092 25.3199C41.8288 25.5904 41.8417 26.1831 41.8417 26.9175V31.4912C41.8417 32.7667 41.8288 32.9084 41.9835 33.179C42.1252 33.4237 42.5632 33.4366 43.027 33.4882C43.1172 33.501 43.143 33.5268 43.143 33.6557C43.143 33.7974 43.1172 33.836 43.027 33.836C42.4859 33.7974 41.7644 33.7845 41.2491 33.7845C40.7208 33.7845 40.0509 33.7974 39.5613 33.836C39.4711 33.836 39.4454 33.7974 39.4454 33.6685C39.4454 33.5268 39.4711 33.501 39.5613 33.4882C39.9865 33.4366 40.3601 33.4237 40.5018 33.179C40.6564 32.8826 40.6435 32.3415 40.6435 31.4912Z" fill="#B59835"/>
<path d="M28.0612 25.9641H27.9066L27.9581 31.5041C27.971 32.3157 28.0226 32.9084 28.19 33.1661C28.3575 33.4237 28.744 33.4624 29.1692 33.5139C29.2594 33.5139 29.2723 33.5397 29.2723 33.6685C29.2723 33.7974 29.2465 33.8231 29.1692 33.8231C28.6539 33.7974 28.1514 33.7845 27.6876 33.7845C27.2109 33.7845 26.6311 33.7974 26.1931 33.8231C26.09 33.8231 26.0642 33.7974 26.0642 33.6814C26.0642 33.5526 26.09 33.5268 26.1802 33.5139C26.5667 33.4624 26.9017 33.4237 27.0692 33.1532C27.2495 32.8697 27.314 32.29 27.3268 31.5041L27.4041 26.9046C27.417 26.0929 27.3655 25.5904 27.198 25.3456C27.0305 25.1137 26.6053 25.0236 26.1415 24.972C26.0385 24.9591 26.0127 24.9334 26.0127 24.8045C26.0127 24.637 26.0385 24.5984 26.1415 24.5984C26.5796 24.6113 27.0563 24.637 27.3784 24.637C27.7262 24.637 28.0483 24.637 28.6667 24.6242C28.9502 25.1395 29.1821 25.4874 29.6588 26.1831L32.5963 30.4863C33.0343 31.1176 33.3951 31.6587 33.7945 32.29V30.6924L33.7816 26.9046C33.7816 26.1702 33.6914 25.5647 33.5239 25.2941C33.3693 25.0364 32.9828 25.0107 32.5705 24.9591C32.4674 24.9462 32.4417 24.9334 32.4417 24.7916C32.4417 24.6242 32.4674 24.5984 32.5576 24.5984C33.0343 24.6242 33.5497 24.6499 34.0135 24.6499C34.4902 24.6499 35.0571 24.6242 35.4694 24.5984C35.5724 24.5984 35.5982 24.6242 35.5982 24.7916C35.5982 24.9205 35.5724 24.9462 35.4694 24.9591C35.0828 25.0107 34.7607 25.0364 34.6061 25.2941C34.4387 25.5776 34.3742 26.1831 34.3614 26.9046L34.2841 31.5041C34.2712 32.3673 34.2841 32.9986 34.3098 33.6814C33.6785 34.0293 33.6527 34.0422 33.6141 34.0422C33.5754 34.0422 33.5368 34.0164 33.511 33.9777C33.1116 33.3207 32.8153 32.8826 32.0423 31.7617L28.0612 25.9641Z" fill="#B59835"/>
<path d="M23.1637 26.9175V31.4912C23.1637 32.7667 23.1508 32.947 23.3055 33.1918C23.4472 33.4366 23.8337 33.4495 24.3233 33.501C24.4135 33.5139 24.4392 33.5397 24.4392 33.6685C24.4392 33.7974 24.4135 33.836 24.3104 33.836C23.7564 33.8103 23.0864 33.7845 22.5453 33.7845C22.0428 33.7845 21.3858 33.8103 20.8833 33.836C20.806 33.836 20.7802 33.7974 20.7802 33.6685C20.7802 33.5397 20.806 33.5139 20.8833 33.501C21.3214 33.4495 21.6563 33.4495 21.8109 33.1918C21.9913 32.9084 21.9784 32.3544 21.9784 31.4912V26.9175C21.9784 25.6935 21.9784 25.5518 21.8238 25.2683C21.6821 25.0236 21.3085 25.0107 20.8189 24.9591C20.7416 24.9462 20.7158 24.9334 20.7158 24.7916C20.7158 24.637 20.7416 24.5984 20.8189 24.5984C21.36 24.637 22.0428 24.6757 22.5453 24.6757C23.0864 24.6757 23.7435 24.637 24.2588 24.5984C24.349 24.5984 24.3748 24.637 24.3748 24.8045C24.3748 24.9334 24.3362 24.9462 24.2588 24.9591C23.8079 25.0107 23.4729 25.0236 23.3183 25.2683C23.1508 25.5647 23.1637 26.1316 23.1637 26.9175Z" fill="#B59835"/>
<path d="M14.1347 24.3921C16.8918 24.3921 18.9145 26.3762 18.9145 29.1848C18.9145 31.9935 16.8918 34.042 14.1347 34.042C11.3775 34.042 9.36768 31.9935 9.36768 29.2106C9.36768 26.4277 11.3775 24.3921 14.1347 24.3921ZM14.1347 24.8301C12.1634 24.8301 10.7849 26.5823 10.7849 29.1848C10.7849 31.8647 12.1377 33.5911 14.1347 33.5911C16.1188 33.5911 17.4844 31.8647 17.4844 29.2235C17.4844 26.5566 16.093 24.8301 14.1347 24.8301Z" fill="#B59835"/>
<path d="M2.51233 29.5715V31.4911C2.51233 32.7666 2.51233 32.947 2.64117 33.1789C2.78289 33.4366 3.19517 33.4495 3.68475 33.501C3.78782 33.5139 3.81358 33.5396 3.81358 33.6685C3.81358 33.7973 3.78782 33.836 3.68475 33.836C3.13075 33.7973 2.46079 33.7844 1.94544 33.7844C1.40433 33.7844 0.721489 33.7973 0.219023 33.836C0.128837 33.836 0.115954 33.8231 0.115954 33.6685C0.115954 33.5268 0.141721 33.5139 0.219023 33.501C0.682838 33.4623 1.01781 33.4495 1.17242 33.1789C1.31414 32.8955 1.31414 32.3415 1.31414 31.4911V26.9174C1.31414 25.6935 1.31414 25.5517 1.1853 25.2683C1.04358 25.0235 0.592652 25.0106 0.115954 24.9591C0.0257675 24.9462 0 24.9333 0 24.7916C0 24.637 0.0257675 24.5983 0.115954 24.5983C0.65707 24.637 1.36568 24.6628 1.89391 24.6628C2.38349 24.6628 3.18228 24.5854 4.01972 24.5854C6.55782 24.5854 7.43391 25.5775 7.43391 27.0076C7.43391 28.3733 6.59647 29.623 3.51726 29.623C3.18228 29.623 2.80865 29.6101 2.51233 29.5715ZM2.51233 26.9045V29.1076C2.79577 29.1592 3.10498 29.1849 3.46572 29.1849C5.39828 29.1849 6.10689 28.2315 6.10689 27.0591C6.10689 25.7192 5.2308 25.0235 3.74917 25.0235C3.36265 25.0235 2.86019 25.0493 2.6927 25.2941C2.49944 25.5646 2.51233 26.2088 2.51233 26.9045Z" fill="#B59835"/>
</svg>
